<svg xmlns="http://www.w3.org/2000/svg" viewBox="0 0 307 92" role="img" aria-labelledby="title">
  <title id="title">BIR Form 2316 September 2021 ENCS barcode</title>
  <rect width="307" height="92" fill="#fff"/>
  <g fill="#000">
    <path d="M4 1h20v70H4zM28 1h4v70h-4zM36 1h3v70h-3zM45 1h11v70H45zM60 1h4v70h-4zM68 1h11v13H68zm0 22h11v48H68zM84 1h4v70h-4zM92 1h10v10H92zm0 18h5v18h-5zm0 27h10v25H92zM106 1h4v70h-4zM116 1h9v18h-9zm0 27h4v17h-4zm0 26h9v17h-9zM129 1h5v70h-5zM139 1h10v11h-10zm0 20h5v23h-5zm0 32h10v18h-10zM153 1h4v70h-4zM162 1h11v21h-11zm0 30h5v18h-5zm0 27h11v13h-11zM177 1h4v70h-4zM186 1h10v13h-10zm0 22h5v21h-5zm0 30h10v18h-10zM200 1h5v70h-5zM210 1h10v19h-10zm0 28h4v15h-4zm0 24h10v18h-10zM224 1h4v70h-4zM233 1h11v12h-11zm0 21h5v24h-5zm0 33h11v16h-11zM248 1h4v70h-4zM257 1h9v20h-9zm0 29h4v15h-4zm0 24h9v17h-9zM271 1h11v70h-11zM287 1h3v70h-3zM295 1h4v70h-4zM303 1h2v70h-2z"/>
    <path d="M49 1h3v70h-3zM72 1h3v70h-3zM96 1h3v70h-3zM120 1h3v70h-3zM143 1h3v70h-3zM166 1h3v70h-3zM190 1h3v70h-3zM214 1h3v70h-3zM237 1h3v70h-3zM260 1h3v70h-3z"/>
  </g>
  <text x="298" y="87" fill="#000" font-family="Arial, Helvetica, sans-serif" font-size="16" text-anchor="end">2316 9/21ENCS</text>
</svg>
